<svg xmlns="http://www.w3.org/2000/svg" version="1.1" xmlns:xlink="http://www.w3.org/1999/xlink" xmlns:svgjs="http://svgjs.dev/svgjs" width="1500" height="1500" viewBox="0 0 1500 1500"><rect width="1500" height="1500" fill="#ffffff"></rect><g transform="matrix(0.6666666666666666,0,0,0.6666666666666666,249.39393939393938,435.9903225806451)"><svg viewBox="0 0 396 248" data-background-color="#ffffff" preserveAspectRatio="xMidYMid meet" height="939" width="1500" xmlns="http://www.w3.org/2000/svg" xmlns:xlink="http://www.w3.org/1999/xlink"><g id="tight-bounds" transform="matrix(1,0,0,1,0.2400000000000091,0.4000000000000057)"><svg viewBox="0 0 395.52 247.2" height="247.2" width="395.52"><g><svg></svg></g><g><svg viewBox="0 0 395.52 247.2" height="247.2" width="395.52"><g transform="matrix(1,0,0,1,75.54432000000001,90.85987478088637)"><svg viewBox="0 0 244.43135999999996 65.48025043822726" height="65.48025043822726" width="244.43135999999996"><g><svg viewBox="0 0 244.43135999999996 65.48025043822726" height="65.48025043822726" width="244.43135999999996"><g><svg viewBox="0 0 244.43135999999996 65.48025043822726" height="65.48025043822726" width="244.43135999999996"><g><svg viewBox="0 0 244.43135999999996 65.48025043822726" height="65.48025043822726" width="244.43135999999996"><g id="textblocktransform"><svg viewBox="0 0 244.43135999999996 65.48025043822726" height="65.48025043822726" width="244.43135999999996" id="textblock"><g><svg viewBox="0 0 244.43135999999996 65.48025043822726" height="65.48025043822726" width="244.43135999999996"><g transform="matrix(1,0,0,1,0,0)"><svg width="244.43135999999996" viewBox="2.1499999999999995 -40.45 201.94 54.1" height="65.48025043822726" data-palette-color="#35185a"><path d="M2.3 0.1L2.3 0.1Q2-0.8 2.3-1.7L2.3-1.7 6.45-2.3Q6.65-4.2 6.65-8.15L6.65-8.15 6.65-37.6 2.6-38.1Q2.4-38.85 2.6-39.95L2.6-39.95Q3.35-39.9 4.95-39.9L4.95-39.9Q8.15-39.9 13.23-40.18 18.3-40.45 19.05-40.45L19.05-40.45Q28.85-40.45 33.9-35.15 38.95-29.85 38.95-20.9L38.95-20.9Q38.95-11.8 34.2-5.8 29.45 0.2 20.9 0.2L20.9 0.2Q18.05 0.2 13.35 0.13 8.65 0.05 6.6 0.05L6.6 0.05Q3.7 0.05 2.3 0.1ZM19-2.2L19-2.2Q33.1-2.2 33.1-20.6L33.1-20.6Q33.1-28.55 29.43-33.15 25.75-37.75 18.85-38.05L18.85-38.05Q18.25-38.1 17-38.1L17-38.1Q14.35-38.1 12.2-37.7L12.2-37.7Q12-35.8 12-31.65L12-31.65 12-2.35Q12.6-2.35 14.88-2.27 17.15-2.2 19-2.2ZM52.4-26.7L52.4-26.7 52.3-21.55Q53.55-23.85 55.77-25.78 58-27.7 60-27.7L60-27.7Q61.55-27.7 62.75-27.35L62.75-27.35Q63.15-26.7 63.15-25.65L63.15-25.65Q63.15-24 62.45-22.35L62.45-22.35Q60.65-22.85 59-22.85L59-22.85Q54.9-22.85 52.25-18.85L52.25-18.85 52.15-10.1 52.15-2.55 57.7-1.8Q57.9-1 57.7 0.2L57.7 0.2Q54.55 0.05 50.5 0.05L50.5 0.05Q47.45 0.05 43.25 0.15L43.25 0.15Q42.95-0.8 43.25-1.8L43.25-1.8 47.2-2.35Q47.4-5.1 47.4-8.7L47.4-8.7 47.4-22.4Q47.4-23.4 47.25-24.25L47.25-24.25 43.3-24.75Q43.1-25.5 43.3-26.65L43.3-26.65Q46.75-26.9 51.9-27.7L51.9-27.7Q52.35-27.2 52.4-26.7ZM86.34-14.1L86.34-14.1 70.64-14.1Q70.2-1.35 78.3-1.35L78.3-1.35Q81.75-1.35 85.34-4.4L85.34-4.4Q86.09-3.95 86.5-2.85L86.5-2.85Q83.05 1 77.75 1L77.75 1Q65.55 1 65.55-13.35L65.55-13.35Q65.55-20.15 69.14-23.93 72.75-27.7 77.55-27.7L77.55-27.7Q82.8-27.7 85.09-24.05 87.4-20.4 87.4-14.55L87.4-14.55Q86.9-14.15 86.34-14.1ZM77.45-25.7L77.45-25.7Q74.84-25.7 73.02-23 71.2-20.3 70.8-16.1L70.8-16.1 77-16.1Q80.7-16.1 82.3-16.55L82.3-16.55Q82.3-20.65 81.05-23.18 79.8-25.7 77.45-25.7ZM100.64-1.2L100.64-1.2Q103.34-1.2 104.64-2.45 105.94-3.7 105.94-5.35L105.94-5.35Q105.94-6.3 105.64-7.1 105.34-7.9 104.67-8.65 103.99-9.4 102.89-10.13 101.79-10.85 100.14-11.7L100.14-11.7Q98.09-12.75 96.62-13.7 95.14-14.65 94.19-15.7 93.24-16.75 92.77-17.95 92.29-19.15 92.29-20.65L92.29-20.65Q92.29-22.45 92.94-23.78 93.59-25.1 94.77-25.98 95.94-26.85 97.54-27.28 99.14-27.7 101.09-27.7L101.09-27.7Q104.99-27.7 108.69-25.8L108.69-25.8 108.69-19.4 106.34-19.4 105.24-24.8Q103.04-25.85 100.59-25.85L100.59-25.85Q96.49-25.85 96.49-22.5L96.49-22.5Q96.49-20.7 97.84-19.2 99.19-17.7 102.19-16.2L102.19-16.2Q104.24-15.15 105.79-14.2 107.34-13.25 108.37-12.2 109.39-11.15 109.92-9.93 110.44-8.7 110.44-7.15L110.44-7.15Q110.44-5.4 109.69-3.9 108.94-2.4 107.59-1.33 106.24-0.25 104.34 0.38 102.44 1 100.14 1L100.14 1Q95.69 1 91.79-0.9L91.79-0.9 91.79-7.3 94.14-7.3 95.24-2.35Q97.79-1.2 100.64-1.2ZM123.64-1.2L123.64-1.2Q126.34-1.2 127.64-2.45 128.94-3.7 128.94-5.35L128.94-5.35Q128.94-6.3 128.64-7.1 128.34-7.9 127.67-8.65 126.99-9.4 125.89-10.13 124.79-10.85 123.14-11.7L123.14-11.7Q121.09-12.75 119.62-13.7 118.14-14.65 117.19-15.7 116.24-16.75 115.77-17.95 115.29-19.15 115.29-20.65L115.29-20.65Q115.29-22.45 115.94-23.78 116.59-25.1 117.77-25.98 118.94-26.85 120.54-27.28 122.14-27.7 124.09-27.7L124.09-27.7Q127.99-27.7 131.69-25.8L131.69-25.8 131.69-19.4 129.34-19.4 128.24-24.8Q126.04-25.85 123.59-25.85L123.59-25.85Q119.49-25.85 119.49-22.5L119.49-22.5Q119.49-20.7 120.84-19.2 122.19-17.7 125.19-16.2L125.19-16.2Q127.24-15.15 128.79-14.2 130.34-13.25 131.37-12.2 132.39-11.15 132.92-9.93 133.44-8.7 133.44-7.15L133.44-7.15Q133.44-5.4 132.69-3.9 131.94-2.4 130.59-1.33 129.24-0.25 127.34 0.38 125.44 1 123.14 1L123.14 1Q118.69 1 114.79-0.9L114.79-0.9 114.79-7.3 117.14-7.3 118.24-2.35Q120.79-1.2 123.64-1.2ZM166.79-12.7L166.79-12.7 166.79-37.6 162.74-38.1 162.74-39.95Q165.49-39.75 167.79-39.75L167.79-39.75Q169.69-39.75 172.89-39.9L172.89-39.9 172.89-38.1 169.74-37.5Q169.54-35.6 169.54-31.65L169.54-31.65 169.54-13Q169.34-5.9 166.19-2.45 163.04 1 155.14 1L155.14 1Q140.24 1 140.24-12.55L140.24-12.55 140.24-37.6 136.19-38.1Q135.99-38.85 136.19-39.95L136.19-39.95Q138.94-39.75 143.04-39.75L143.04-39.75Q146.69-39.75 149.94-39.9L149.94-39.9Q150.24-39 149.94-38.1L149.94-38.1 145.79-37.5Q145.59-35.6 145.59-31.65L145.59-31.65 145.59-12.55Q145.59-6.95 148.19-4.58 150.79-2.2 156.79-2.2L156.79-2.2Q162.44-2.2 164.61-4.67 166.79-7.15 166.79-12.7ZM191.64-1.7L191.64-1.7Q194.94-1.7 196.86-4.9 198.79-8.1 198.79-14.55L198.79-14.55Q198.79-19.5 196.96-22.1 195.14-24.7 192.14-24.7L192.14-24.7Q187.74-24.7 184.54-20.45L184.54-20.45 184.54-4.9Q187.34-1.7 191.64-1.7ZM179.79 4.75L179.79-19.55Q179.79-22.9 179.64-24.25L179.64-24.25 175.69-24.75Q175.54-25.55 175.69-26.65L175.69-26.65Q179.19-26.9 184.29-27.7L184.29-27.7Q184.74-27.25 184.79-26.7L184.79-26.7Q184.54-24.95 184.54-23L184.54-23Q188.59-27.7 193.84-27.7L193.84-27.7Q198.24-27.7 201.16-24.05 204.09-20.4 204.09-14.4L204.09-14.4Q204.09-7.45 200.26-3.23 196.44 1 191.24 1L191.24 1Q187.59 1 184.54-1.35L184.54-1.35 184.54 10.9 189.59 11.65Q189.79 12.45 189.59 13.65L189.59 13.65Q186.44 13.5 182.64 13.5L182.64 13.5Q179.84 13.5 175.64 13.6L175.64 13.6Q175.34 12.6 175.64 11.65L175.64 11.65 179.59 11.1Q179.79 8.35 179.79 4.75L179.79 4.75Z" opacity="1" transform="matrix(1,0,0,1,0,0)" fill="#000000" class="wordmark-text-0" data-fill-palette-color="primary" id="text-0"></path></svg></g></svg></g></svg></g></svg></g></svg></g></svg></g></svg></g><g><path d="M0 123.6c0-68.262 55.338-123.6 123.6-123.6 54.089 0 100.063 34.743 116.823 83.131h-3.131c-16.634-46.727-61.257-80.178-113.692-80.178-66.632 0-120.647 54.016-120.647 120.647 0 66.632 54.016 120.647 120.647 120.647 52.436 0 97.059-33.451 113.692-80.178h3.131c-16.76 48.387-62.734 83.131-116.823 83.131-68.262 0-123.6-55.338-123.6-123.6z" fill="#000000" stroke="transparent" data-fill-palette-color="tertiary"></path></g></svg></g><defs></defs></svg><rect width="395.52" height="247.2" fill="none" stroke="none" visibility="hidden"></rect></g></svg></g></svg>